<svg xmlns="http://www.w3.org/2000/svg" viewBox="0 0 200 200">
  <defs>
    <linearGradient id="termGrad" x1="0%" y1="0%" x2="100%" y2="100%">
      <stop offset="0%" style="stop-color:#1a1b2e;stop-opacity:1" />
      <stop offset="100%" style="stop-color:#2d1f4e;stop-opacity:1" />
    </linearGradient>
    <linearGradient id="plusGrad" x1="0%" y1="0%" x2="100%" y2="100%">
      <stop offset="0%" style="stop-color:#f97316;stop-opacity:1" />
      <stop offset="100%" style="stop-color:#fb923c;stop-opacity:1" />
    </linearGradient>
    <linearGradient id="cursorGrad" x1="0%" y1="0%" x2="0%" y2="100%">
      <stop offset="0%" style="stop-color:#22d3ee;stop-opacity:1" />
      <stop offset="100%" style="stop-color:#06b6d4;stop-opacity:1" />
    </linearGradient>
    <linearGradient id="mailGrad" x1="0%" y1="0%" x2="100%" y2="100%">
      <stop offset="0%" style="stop-color:#a78bfa;stop-opacity:1" />
      <stop offset="100%" style="stop-color:#8b5cf6;stop-opacity:1" />
    </linearGradient>
    <filter id="glow">
      <feGaussianBlur stdDeviation="2" result="blur" />
      <feMerge>
        <feMergeNode in="blur" />
        <feMergeNode in="SourceGraphic" />
      </feMerge>
    </filter>
    <filter id="shadow">
      <feDropShadow dx="0" dy="4" stdDeviation="6" flood-color="#000" flood-opacity="0.3" />
    </filter>
  </defs>

  <!-- Terminal window -->
  <g filter="url(#shadow)">
    <rect x="20" y="20" width="160" height="160" rx="16" fill="url(#termGrad)" stroke="#444" stroke-width="1.5"/>

    <!-- Title bar dots -->
    <circle cx="44" cy="42" r="6" fill="#ff5f57"/>
    <circle cx="64" cy="42" r="6" fill="#febc2e"/>
    <circle cx="84" cy="42" r="6" fill="#28c840"/>

    <!-- Terminal lines -->
    <g opacity="0.6">
      <rect x="40" y="65" width="80" height="4" rx="2" fill="#6ee7b7"/>
      <rect x="40" y="80" width="55" height="4" rx="2" fill="#94a3b8"/>
      <rect x="40" y="95" width="100" height="4" rx="2" fill="#94a3b8"/>
      <rect x="40" y="110" width="70" height="4" rx="2" fill="#fbbf24"/>
      <rect x="40" y="125" width="90" height="4" rx="2" fill="#94a3b8"/>
    </g>

    <!-- Blinking cursor -->
    <rect x="40" y="142" width="10" height="16" rx="2" fill="url(#cursorGrad)" filter="url(#glow)" opacity="0.9"/>
  </g>

  <!-- Mail envelope flying out -->
  <g transform="translate(148, 36) rotate(-15)" filter="url(#glow)">
    <rect x="0" y="0" width="36" height="26" rx="4" fill="url(#mailGrad)" opacity="0.95"/>
    <polyline points="0,0 18,14 36,0" fill="none" stroke="#e9d5ff" stroke-width="2" stroke-linejoin="round"/>
    <!-- Motion lines -->
    <line x1="-8" y1="8" x2="-16" y2="8" stroke="#a78bfa" stroke-width="2" stroke-linecap="round" opacity="0.6"/>
    <line x1="-6" y1="15" x2="-14" y2="15" stroke="#a78bfa" stroke-width="1.5" stroke-linecap="round" opacity="0.4"/>
    <line x1="-7" y1="22" x2="-12" y2="22" stroke="#a78bfa" stroke-width="1" stroke-linecap="round" opacity="0.3"/>
  </g>
</svg>
